<svg width="133" height="110" viewBox="0 0 133 110" fill="none" xmlns="http://www.w3.org/2000/svg">
<circle cx="53.6582" cy="53.6587" r="46.8755" fill="#C1CBFF"/>
<circle cx="53.6585" cy="53.6585" r="52.2232" fill="#DAFFAB" stroke="#DAFFAB" stroke-width="2.87067"/>
<g clip-path="url(#clip0_20434_2336)">
<path d="M122.119 32.2852L27.8206 70.0107L17.9106 86.4142L122.119 32.2852Z" fill="#91FF02"/>
<path opacity="0.6" d="M122.119 32.2852L27.8206 70.0107L17.9106 86.4142L122.119 32.2852Z" fill="white"/>
<path d="M122.119 32.2852L27.8206 70.0106L36.9885 88.0358L122.119 32.2852Z" fill="#91FF02"/>
<path opacity="0.2" d="M122.119 32.2852L27.8206 70.0106L36.9885 88.0358L122.119 32.2852Z" fill="black"/>
<path d="M25.5919 32.2342L26.3546 60.1767C26.3947 61.6906 27.666 62.8926 29.1808 62.852L82.4026 61.3836C83.9174 61.3431 85.1204 60.0722 85.0803 58.5583L84.3175 30.6158C84.2935 29.8235 83.9362 29.1166 83.3825 28.6295C82.8757 28.1855 82.2091 27.9253 81.4871 27.9415L28.2695 29.4089C27.5485 29.4294 26.895 29.7283 26.4145 30.1984C25.8908 30.7153 25.5688 31.4462 25.5919 32.2342Z" fill="#91FF02"/>
<path opacity="0.4" d="M25.5919 32.2342L26.3546 60.1767C26.3947 61.6906 27.666 62.8926 29.1808 62.852L82.4026 61.3836C83.9174 61.3431 85.1204 60.0722 85.0803 58.5583L84.3175 30.6158C84.2935 29.8235 83.9362 29.1166 83.3825 28.6295C82.8757 28.1855 82.2091 27.9253 81.4871 27.9415L28.2695 29.4089C27.5485 29.4294 26.895 29.7283 26.4145 30.1984C25.8908 30.7153 25.5688 31.4462 25.5919 32.2342Z" fill="black"/>
<path d="M26.4141 30.1988L48.3517 46.8439C52.5431 50.0228 58.3807 49.8644 62.3921 46.4575L83.3855 28.6245C82.8786 28.1805 82.2121 27.9203 81.49 27.9366L28.2692 29.4092C27.5482 29.4298 26.8946 29.7287 26.4141 30.1988Z" fill="#91FF02"/>
<path d="M122.119 32.2852L46.1699 70.9472L36.9885 88.0358L122.119 32.2852Z" fill="#91FF02"/>
<path opacity="0.6" d="M122.119 32.2852L46.1699 70.9472L36.9885 88.0358L122.119 32.2852Z" fill="white"/>
<path d="M97.1919 57.8528L97.498 58.1699L89.8022 65.5924L89.496 65.2753L97.1919 57.8528Z" fill="#91FF02"/>
<path d="M86.1011 68.556L86.4072 68.873L83.6399 71.5421L83.3337 71.225L86.1011 68.556Z" fill="#91FF02"/>
<path d="M122.119 32.2852L46.1699 70.9472L66.4068 86.0228L122.119 32.2852Z" fill="#91FF02"/>
<path d="M25.1971 103.244C25.2999 103.219 25.4019 103.172 25.4997 103.107L37.3683 94.7311C37.7672 94.4486 37.8611 93.8998 37.5785 93.5012C37.2959 93.1027 36.7511 93.0079 36.348 93.2915L24.4793 101.668C24.0805 101.95 23.9865 102.499 24.2691 102.897C24.484 103.204 24.8542 103.327 25.1971 103.244Z" fill="#91FF02"/>
<path opacity="0.3" d="M25.1971 103.244C25.2999 103.219 25.4019 103.172 25.4997 103.107L37.3683 94.7311C37.7672 94.4486 37.8611 93.8998 37.5785 93.5012C37.2959 93.1027 36.7511 93.0079 36.348 93.2915L24.4793 101.668C24.0805 101.95 23.9865 102.499 24.2691 102.897C24.484 103.204 24.8542 103.327 25.1971 103.244Z" fill="black"/>
<path d="M24.1457 95.5324C24.2486 95.5074 24.3505 95.4601 24.4483 95.3955L30.8229 90.8991C31.2218 90.6165 31.3157 90.0678 31.0331 89.6692C30.7505 89.2706 30.2057 89.1759 29.8025 89.4595L23.428 93.9559C23.0291 94.2385 22.9352 94.7873 23.2178 95.1858C23.4326 95.492 23.8028 95.6154 24.1457 95.5324Z" fill="#91FF02"/>
<path d="M24.1457 95.5324C24.2486 95.5074 24.3505 95.4601 24.4483 95.3955L30.8229 90.8991C31.2218 90.6165 31.3157 90.0678 31.0331 89.6692C30.7505 89.2706 30.2057 89.1759 29.8025 89.4595L23.428 93.9559C23.0291 94.2385 22.9352 94.7873 23.2178 95.1858C23.4326 95.492 23.8028 95.6154 24.1457 95.5324Z" fill="#66B201"/>
<path d="M40.6796 99.351C40.7825 99.3261 40.8845 99.2787 40.9823 99.2142L52.5563 91.0456C52.9552 90.763 53.0491 90.2143 52.7665 89.8157C52.4839 89.4171 51.9348 89.3234 51.536 89.606L39.9619 97.7746C39.563 98.0571 39.4691 98.6059 39.7517 99.0045C39.9666 99.3106 40.3368 99.434 40.6796 99.351Z" fill="#91FF02"/>
<path opacity="0.3" d="M40.6796 99.351C40.7825 99.3261 40.8845 99.2787 40.9823 99.2142L52.5563 91.0456C52.9552 90.763 53.0491 90.2143 52.7665 89.8157C52.4839 89.4171 51.9348 89.3234 51.536 89.606L39.9619 97.7746C39.563 98.0571 39.4691 98.6059 39.7517 99.0045C39.9666 99.3106 40.3368 99.434 40.6796 99.351Z" fill="black"/>
</g>
<defs>
<clipPath id="clip0_20434_2336">
<rect width="114.024" height="71.0976" fill="white" transform="matrix(-0.971879 0.23548 0.23548 0.971879 116.243 8.0293)"/>
</clipPath>
</defs>
</svg>
