<svg xmlns="http://www.w3.org/2000/svg" viewBox="0 0 256 256" fill="none">
  <defs>
    <clipPath id="rounded">
      <rect width="256" height="256" rx="56" />
    </clipPath>
    <radialGradient id="glow" cx="0" cy="0" r="1" gradientUnits="userSpaceOnUse" gradientTransform="translate(196 54) rotate(134.277) scale(88.4861)">
      <stop stop-color="#91FF02" stop-opacity="0.45" />
      <stop offset="1" stop-color="#91FF02" stop-opacity="0" />
    </radialGradient>
  </defs>

  <g clip-path="url(#rounded)">
    <rect width="256" height="256" fill="#0A0D12" />
    <rect x="128" width="128" height="256" fill="#1D3300" />
    <rect x="8" y="8" width="240" height="240" rx="48" stroke="#252B37" stroke-width="2" />
    <circle cx="196" cy="54" r="84" fill="url(#glow)" />
  </g>

  <rect x="54" y="70" width="18" height="116" rx="5" fill="#F5F5F5" />
  <rect x="54" y="70" width="74" height="16" rx="5" fill="#F5F5F5" />
  <rect x="54" y="120" width="58" height="14" rx="5" fill="#F5F5F5" />
  <rect x="54" y="170" width="74" height="16" rx="5" fill="#F5F5F5" />

  <path
    d="M166 70H184L228 186H210L201 162H149L140 186H122L166 70ZM176 101L156 145H194L176 101Z"
    fill="#91FF02"
  />
</svg>
