<svg width="29" height="29" viewBox="0 0 29 29" fill="none" xmlns="http://www.w3.org/2000/svg">
<path d="M14.4165 28.833C6.46882 28.833 0 22.3642 0 14.4165C0 6.46882 6.46882 0 14.4165 0C22.3642 0 28.833 6.46882 28.833 14.4165C28.833 22.3642 22.3642 28.833 14.4165 28.833ZM14.4165 2.32524C7.7477 2.32524 2.32524 7.7477 2.32524 14.4165C2.32524 21.0853 7.7477 26.5077 14.4165 26.5077C21.0853 26.5077 26.5077 21.0853 26.5077 14.4165C26.5077 7.7477 21.0853 2.32524 14.4165 2.32524Z" fill="#FDFDFD"/>
<path d="M10.2319 12.9972C7.50673 12.9972 4.55833 12.5926 1.4146 11.7741C0.791436 11.6113 0.419397 10.9789 0.582164 10.3557C0.744931 9.73255 1.3774 9.36051 2.00056 9.52328C11.5247 11.9973 18.9795 10.4301 23.5555 4.99836C23.9694 4.51006 24.7042 4.44495 25.1925 4.85884C25.6855 5.27274 25.7459 6.00751 25.332 6.49581C21.7 10.8068 16.5659 12.9972 10.2319 12.9972Z" fill="#FDFDFD"/>
<path d="M4.41919 24.2807C4.14946 24.2807 3.88438 24.1877 3.66581 24.0017C3.17751 23.5832 3.1217 22.8484 3.5356 22.3601C10.3346 14.4124 19.1333 12.5243 27.6762 17.1888C28.239 17.4957 28.4482 18.2026 28.1413 18.7653C27.8344 19.328 27.1275 19.5373 26.5648 19.2303C16.3058 13.6358 8.84179 19.7372 5.30278 23.8761C5.0749 24.1412 4.74937 24.2807 4.41919 24.2807Z" fill="#FDFDFD"/>
<path d="M18.2246 28.2742C18.1827 28.2742 18.1409 28.2742 18.099 28.2696C17.4619 28.1998 17.0015 27.6278 17.0713 26.986C17.9781 18.671 15.8389 10.2862 10.7187 2.05482C10.3792 1.51071 10.5467 0.794538 11.0908 0.455053C11.6349 0.115568 12.351 0.282985 12.6905 0.827092C18.0944 9.50954 20.3452 18.3966 19.3826 27.2418C19.3128 27.8371 18.8106 28.2742 18.2246 28.2742Z" fill="#FDFDFD"/>
</svg>
